{
    "asset" : {
        "generator" : "Khronos glTF Blender I/O v3.3.27",
        "version" : "2.0"
    },
    "scene" : 0,
    "scenes" : [
        {
            "name" : "Scene",
            "nodes" : [
                4,
                8,
                12,
                16
            ]
        }
    ],
    "nodes" : [
        {
            "mesh" : 0,
            "name" : "VoronoiDyno.Bake_Material_0",
            "scale" : [
                -0.37389394640922546,
                -0.37389400601387024,
                -0.37389400601387024
            ],
            "translation" : [
                0,
                0.01412582490593195,
                0
            ]
        },
        {
            "children" : [
                0
            ],
            "name" : "VoronoiDyno.Bake",
            "rotation" : [
                -0.7071068286895752,
                0,
                0,
                0.7071067094802856
            ],
            "scale" : [
                100,
                99.99999237060547,
                99.99999237060547
            ]
        },
        {
            "children" : [
                1
            ],
            "name" : "RootNode"
        },
        {
            "children" : [
                2
            ],
            "name" : "44a5e8b8e72c403c900c82951512c998.fbx",
            "rotation" : [
                0.7071068286895752,
                0,
                0,
                0.7071067094802856
            ]
        },
        {
            "children" : [
                3
            ],
            "name" : "Sketchfab_model",
            "rotation" : [
                -0.7071068286895752,
                0,
                0,
                0.7071067094802856
            ]
        },
        {
            "name" : "Arrow",
            "rotation" : [
                -0.7071068286895752,
                0,
                0,
                0.7071067094802856
            ],
            "scale" : [
                2.5399999618530273,
                2.539999485015869,
                2.539999485015869
            ],
            "translation" : [
                0,
                69.99999237060547,
                0
            ]
        },
        {
            "children" : [
                5
            ],
            "name" : "RootNode.001"
        },
        {
            "children" : [
                6
            ],
            "name" : "70878f6fc79e4b0b821dfe311ed58aed.fbx",
            "rotation" : [
                0.7071068286895752,
                0,
                0,
                0.7071067094802856
            ],
            "scale" : [
                0.009999999776482582,
                0.010000000707805157,
                0.010000000707805157
            ]
        },
        {
            "children" : [
                7
            ],
            "name" : "Sketchfab_model.001",
            "rotation" : [
                -0.7071068286895752,
                0,
                0,
                0.7071067094802856
            ]
        },
        {
            "name" : "Arrow.001",
            "rotation" : [
                -0.7071068286895752,
                0,
                0,
                0.7071067094802856
            ],
            "scale" : [
                2.5399999618530273,
                2.5399999618530273,
                2.5399999618530273
            ],
            "translation" : [
                0,
                70,
                0
            ]
        },
        {
            "children" : [
                9
            ],
            "name" : "RootNode.002"
        },
        {
            "children" : [
                10
            ],
            "name" : "70878f6fc79e4b0b821dfe311ed58aed.fbx.001",
            "rotation" : [
                0.7071068286895752,
                0,
                0,
                0.7071067094802856
            ],
            "scale" : [
                0.009999999776482582,
                0.010000000707805157,
                0.010000000707805157
            ]
        },
        {
            "children" : [
                11
            ],
            "name" : "Sketchfab_model.002",
            "rotation" : [
                -0.499401718378067,
                0.5005975961685181,
                -0.5005975365638733,
                0.499401718378067
            ]
        },
        {
            "name" : "Arrow.002",
            "rotation" : [
                -0.7071068286895752,
                0,
                0,
                0.7071067094802856
            ],
            "scale" : [
                2.5399999618530273,
                2.539999485015869,
                2.539999485015869
            ],
            "translation" : [
                0,
                70,
                0
            ]
        },
        {
            "children" : [
                13
            ],
            "name" : "RootNode.003"
        },
        {
            "children" : [
                14
            ],
            "name" : "70878f6fc79e4b0b821dfe311ed58aed.fbx.002",
            "rotation" : [
                0.7071068286895752,
                0,
                0,
                0.7071067094802856
            ],
            "scale" : [
                0.009999999776482582,
                0.010000000707805157,
                0.010000000707805157
            ]
        },
        {
            "children" : [
                15
            ],
            "name" : "Sketchfab_model.003",
            "rotation" : [
                0.0013462306233122945,
                0,
                0,
                1
            ]
        }
    ],
    "materials" : [
        {
            "doubleSided" : true,
            "name" : "Material",
            "pbrMetallicRoughness" : {
                "baseColorFactor" : [
                    0.8000000715255737,
                    0,
                    0.0039034951478242874,
                    1
                ],
                "metallicFactor" : 0,
                "roughnessFactor" : 0.5
            }
        }
    ],
    "meshes" : [
        {
            "name" : "VoronoiDyno.Bake_Material_0",
            "primitives" : [
                {
                    "attributes" : {
                        "POSITION" : 0,
                        "NORMAL" : 1,
                        "TEXCOORD_0" : 2
                    },
                    "indices" : 3,
                    "material" : 0
                }
            ]
        }
    ],
    "accessors" : [
        {
            "bufferView" : 0,
            "componentType" : 5126,
            "count" : 55035,
            "max" : [
                0.9475409984588623,
                0.9276971817016602,
                0.9498283863067627
            ],
            "min" : [
                -0.9256026744842529,
                -0.9260938167572021,
                -0.9454019069671631
            ],
            "type" : "VEC3"
        },
        {
            "bufferView" : 1,
            "componentType" : 5126,
            "count" : 55035,
            "type" : "VEC3"
        },
        {
            "bufferView" : 2,
            "componentType" : 5126,
            "count" : 55035,
            "type" : "VEC2"
        },
        {
            "bufferView" : 3,
            "componentType" : 5123,
            "count" : 267264,
            "type" : "SCALAR"
        }
    ],
    "bufferViews" : [
        {
            "buffer" : 0,
            "byteLength" : 660420,
            "byteOffset" : 0,
            "target" : 34962
        },
        {
            "buffer" : 0,
            "byteLength" : 660420,
            "byteOffset" : 660420,
            "target" : 34962
        },
        {
            "buffer" : 0,
            "byteLength" : 440280,
            "byteOffset" : 1320840,
            "target" : 34962
        },
        {
            "buffer" : 0,
            "byteLength" : 534528,
            "byteOffset" : 1761120,
            "target" : 34963
        }
    ],
    "buffers" : [
        {
            "byteLength" : 2295648,
            "uri" : "data:application/octet-stream;base64,"
        }
    ]
}
